<svg height="512pt" viewBox="0 0 512 512" width="512pt" xmlns="http://www.w3.org/2000/svg"><path d="m512 256c0 141.386719-114.613281 256-256 256s-256-114.613281-256-256 114.613281-256 256-256 256 114.613281 256 256zm0 0" fill="#4bb9ec"/><path d="m368.5 139.207031-18.4375 18.4375-69.773438-69.773437-60.210937 60.207031-.039063-.039063-129.210937 129.207032 69.816406 69.816406-18.472656 18.476562 144.613281 144.613282c118.546875-14.210938 212.183594-109.421875 223.957032-228.703125zm0 0" fill="#0095ff"/><path d="m413.667969 277.285156v-56.09375l-47.21875-11.707031c-1.613281-4.640625-3.429688-9.078125-5.449219-13.316406l24.214844-40.355469-39.550782-39.550781-40.355468 24.214843c-4.238282-2.015624-8.675782-3.835937-13.320313-5.449218l-11.703125-47.21875h-56.097656l-11.703125 47.21875c-4.640625 1.613281-9.078125 3.429687-13.316406 5.449218l-40.359375-24.214843-39.550782 39.550781 24.214844 40.355469c-2.015625 4.238281-3.832031 8.679687-5.445312 13.316406l-47.21875 11.707031v56.09375l47.21875 11.703125c1.613281 4.644531 3.429687 9.082031 5.445312 13.320313l-24.214844 40.355468 39.550782 39.550782 40.359375-24.210938c4.238281 2.015625 8.675781 3.832032 13.316406 5.445313l11.703125 47.21875h56.097656l11.703125-47.21875c4.644531-1.613281 9.082031-3.429688 13.320313-5.445313l40.355468 24.210938 19.777344-19.773438 19.773438-19.777344-24.214844-40.355468c2.019531-4.238282 3.835938-8.675782 5.449219-13.320313zm-161.429688 52.667969c-44.59375 0-80.714843-36.121094-80.714843-80.714844 0-22.199219 9.082031-42.375 23.609374-57.105469 14.730469-14.527343 34.910157-23.609374 57.105469-23.609374 44.59375 0 80.714844 36.117187 80.714844 80.714843 0 22.195313-9.082031 42.375-23.609375 57.105469-14.730469 14.527344-34.910156 23.609375-57.105469 23.609375zm0 0" fill="#d8d8fc"/><path d="m365.441406 362.441406-19.777344 19.773438-40.355468-24.210938c-4.238282 2.015625-8.675782 3.832032-13.320313 5.445313l-11.703125 47.21875h-56.097656l-11.703125-47.21875c-4.640625-1.613281-9.078125-3.429688-13.316406-5.445313l-40.359375 24.210938-39.550782-39.550782 24.214844-40.355468c-2.015625-4.238282-3.832031-8.675782-5.445312-13.320313l-47.21875-11.703125v-56.09375l47.21875-11.707031c1.613281-4.640625 3.429687-9.078125 5.445312-13.316406l-24.214844-40.355469 19.777344-19.777344 56.097656 56.097656c-14.53125 14.730469-23.609374 34.910157-23.609374 57.105469 0 44.59375 36.117187 80.714844 80.714843 80.714844 22.195313 0 42.375-9.082031 57.105469-23.609375zm0 0" fill="#a3a3d1"/><path d="m435.191406 389.386719-29.882812-29.882813-34.527344 5.992188-.429688 1.855468-7.847656 34.957032 29.882813 29.882812zm0 0" fill="#61729b"/><path d="m435.191406 389.386719-29.882812-29.882813-34.527344 5.992188-.429688 1.855468 43.4375 43.4375zm0 0" fill="#47568c"/><path d="m405.308594 359.503906-106.59375-106.59375-35.671875 7.132813-7.132813 35.671875 106.59375 106.59375zm0 0" fill="#ff641a"/><path d="m383.90625 380.90625 21.402344-21.402344-106.59375-106.59375-35.671875 7.132813zm0 0" fill="#f03800"/><path d="m298.714844 252.910156-78.476563-35.671875 35.671875 78.476563zm0 0" fill="#ffcebf"/><path d="m277.3125 274.3125 21.402344-21.402344-78.476563-35.671875zm0 0" fill="#ffb99c"/></svg>